# xmcd CD database file
#
# Track frame offsets:
#	150
#	16648
#	35482
#	51658
#	63583
#	79756
#	90920
#	106064
#	122028
#	137945
#	151561
#	168676
#	181854
#	192612
#
# Disc length: 2772 seconds
#
# Revision: 0
# Processed by: cddbd v1.5.2PL0 Copyright (c) Steve Scherf et al.
# Submitted via: CDex 1.70beta2
#
DISCID=b30ad20e
DTITLE=Champagne, Carole - Cdn. - Cty. - Forever With Me
DYEAR=1900
DGENRE=Country
TTITLE0=Forever With Me  
TTITLE1=I Might Be Blonde (But I Ain't Blind)
TTITLE2=Who Believes In Love Anymore  
TTITLE3=I Think I Love Rednecks 
TTITLE4=Help  
TTITLE5=Don't Gimme That 
TTITLE6=You Have That Look  
TTITLE7=I Really Love To Hear A Sad Song  
TTITLE8=Will You Marry Me ? 
TTITLE9=Magic Fingers 
TTITLE10=The Rest Of Our Lives  
TTITLE11=Are You Pickin' Up What I'm Puttin' Down  
TTITLE12=Kissed By A French Girl  
TTITLE13=Talk To Me  
EXTD=
EXTT0=
EXTT1=
EXTT2=
EXTT3=
EXTT4=
EXTT5=
EXTT6=
EXTT7=
EXTT8=
EXTT9=
EXTT10=
EXTT11=
EXTT12=
EXTT13=
PLAYORDER=
